<mxfile>
    <diagram id="o05eoSvXVpRTXPL1Z2OD" name="Page-1">
        <mxGraphModel dx="2396" dy="1871" grid="1" gridSize="10" guides="1" tooltips="1" connect="1" arrows="1" fold="1" page="1" pageScale="1" pageWidth="850" pageHeight="1100" math="0" shadow="0">
            <root>
                <mxCell id="0"/>
                <mxCell id="1" parent="0"/>
                <mxCell id="3" value="" style="shape=cylinder3;whiteSpace=wrap;html=1;boundedLbl=1;backgroundOutline=1;size=15;" parent="1" vertex="1">
                    <mxGeometry x="100" y="40" width="60" height="80" as="geometry"/>
                </mxCell>
                <mxCell id="23" style="edgeStyle=orthogonalEdgeStyle;rounded=0;orthogonalLoop=1;jettySize=auto;html=1;exitX=0.5;exitY=0;exitDx=0;exitDy=0;exitPerimeter=0;" parent="1" source="20" edge="1">
                    <mxGeometry relative="1" as="geometry">
                        <mxPoint x="130" y="240" as="targetPoint"/>
                    </mxGeometry>
                </mxCell>
                <mxCell id="20" value="Actor" style="shape=umlActor;verticalLabelPosition=bottom;verticalAlign=top;html=1;" parent="1" vertex="1">
                    <mxGeometry x="115" y="430" width="30" height="60" as="geometry"/>
                </mxCell>
                <mxCell id="31" value="" style="rounded=0;orthogonalLoop=1;jettySize=auto;html=1;endArrow=none;endFill=0;exitX=0.5;exitY=1;exitDx=0;exitDy=0;exitPerimeter=0;" edge="1" target="33" parent="1" source="3">
                    <mxGeometry relative="1" as="geometry">
                        <mxPoint x="170" y="185" as="sourcePoint"/>
                    </mxGeometry>
                </mxCell>
                <mxCell id="32" value="" style="rounded=0;orthogonalLoop=1;jettySize=auto;html=1;endArrow=halfCircle;endFill=0;entryX=0.5;entryY=0.5;entryDx=0;entryDy=0;endSize=6;strokeWidth=1;" edge="1" target="33" parent="1">
                    <mxGeometry relative="1" as="geometry">
                        <mxPoint x="130" y="240" as="sourcePoint"/>
                    </mxGeometry>
                </mxCell>
                <mxCell id="33" value="" style="ellipse;whiteSpace=wrap;html=1;fontFamily=Helvetica;fontSize=12;fontColor=#000000;align=center;strokeColor=#000000;fillColor=#ffffff;points=[];aspect=fixed;resizable=0;" vertex="1" parent="1">
                    <mxGeometry x="125" y="170" width="10" height="10" as="geometry"/>
                </mxCell>
                <mxCell id="34" value="API" style="text;html=1;strokeColor=none;fillColor=none;align=center;verticalAlign=middle;whiteSpace=wrap;rounded=0;" vertex="1" parent="1">
                    <mxGeometry x="140" y="130" width="40" height="20" as="geometry"/>
                </mxCell>
                <mxCell id="36" value="" style="shape=cylinder3;whiteSpace=wrap;html=1;boundedLbl=1;backgroundOutline=1;size=15;" vertex="1" parent="1">
                    <mxGeometry x="380" y="190" width="60" height="80" as="geometry"/>
                </mxCell>
                <mxCell id="37" style="edgeStyle=orthogonalEdgeStyle;rounded=0;orthogonalLoop=1;jettySize=auto;html=1;exitX=0.5;exitY=0;exitDx=0;exitDy=0;exitPerimeter=0;" edge="1" parent="1" source="38">
                    <mxGeometry relative="1" as="geometry">
                        <mxPoint x="410" y="390" as="targetPoint"/>
                    </mxGeometry>
                </mxCell>
                <mxCell id="38" value="Actor" style="shape=umlActor;verticalLabelPosition=bottom;verticalAlign=top;html=1;" vertex="1" parent="1">
                    <mxGeometry x="395" y="760" width="30" height="60" as="geometry"/>
                </mxCell>
                <mxCell id="39" value="" style="rounded=0;orthogonalLoop=1;jettySize=auto;html=1;endArrow=none;endFill=0;exitX=0.5;exitY=1;exitDx=0;exitDy=0;exitPerimeter=0;" edge="1" parent="1" source="36" target="41">
                    <mxGeometry relative="1" as="geometry">
                        <mxPoint x="450" y="335" as="sourcePoint"/>
                    </mxGeometry>
                </mxCell>
                <mxCell id="40" value="" style="rounded=0;orthogonalLoop=1;jettySize=auto;html=1;endArrow=halfCircle;endFill=0;entryX=0.5;entryY=0.5;entryDx=0;entryDy=0;endSize=6;strokeWidth=1;" edge="1" parent="1" target="41">
                    <mxGeometry relative="1" as="geometry">
                        <mxPoint x="410" y="390" as="sourcePoint"/>
                    </mxGeometry>
                </mxCell>
                <mxCell id="41" value="" style="ellipse;whiteSpace=wrap;html=1;fontFamily=Helvetica;fontSize=12;fontColor=#000000;align=center;strokeColor=#000000;fillColor=#ffffff;points=[];aspect=fixed;resizable=0;" vertex="1" parent="1">
                    <mxGeometry x="405" y="320" width="10" height="10" as="geometry"/>
                </mxCell>
                <mxCell id="42" value="API" style="text;html=1;strokeColor=none;fillColor=none;align=center;verticalAlign=middle;whiteSpace=wrap;rounded=0;" vertex="1" parent="1">
                    <mxGeometry x="420" y="280" width="40" height="20" as="geometry"/>
                </mxCell>
                <mxCell id="43" value="" style="endArrow=classic;startArrow=classic;html=1;exitX=1;exitY=0.5;exitDx=0;exitDy=0;exitPerimeter=0;entryX=0;entryY=0.5;entryDx=0;entryDy=0;entryPerimeter=0;" edge="1" parent="1" source="3" target="36">
                    <mxGeometry width="50" height="50" relative="1" as="geometry">
                        <mxPoint x="400" y="260" as="sourcePoint"/>
                        <mxPoint x="450" y="210" as="targetPoint"/>
                    </mxGeometry>
                </mxCell>
                <mxCell id="44" value="" style="shape=cylinder3;whiteSpace=wrap;html=1;boundedLbl=1;backgroundOutline=1;size=15;" vertex="1" parent="1">
                    <mxGeometry x="960" y="40" width="60" height="80" as="geometry"/>
                </mxCell>
                <mxCell id="45" style="edgeStyle=orthogonalEdgeStyle;rounded=0;orthogonalLoop=1;jettySize=auto;html=1;exitX=0.5;exitY=0;exitDx=0;exitDy=0;exitPerimeter=0;" edge="1" parent="1" source="46">
                    <mxGeometry relative="1" as="geometry">
                        <mxPoint x="990" y="240" as="targetPoint"/>
                    </mxGeometry>
                </mxCell>
                <mxCell id="46" value="Actor" style="shape=umlActor;verticalLabelPosition=bottom;verticalAlign=top;html=1;" vertex="1" parent="1">
                    <mxGeometry x="975" y="430" width="30" height="60" as="geometry"/>
                </mxCell>
                <mxCell id="47" value="" style="rounded=0;orthogonalLoop=1;jettySize=auto;html=1;endArrow=none;endFill=0;exitX=0.5;exitY=1;exitDx=0;exitDy=0;exitPerimeter=0;" edge="1" parent="1" source="44" target="49">
                    <mxGeometry relative="1" as="geometry">
                        <mxPoint x="1030" y="185" as="sourcePoint"/>
                    </mxGeometry>
                </mxCell>
                <mxCell id="48" value="" style="rounded=0;orthogonalLoop=1;jettySize=auto;html=1;endArrow=halfCircle;endFill=0;entryX=0.5;entryY=0.5;entryDx=0;entryDy=0;endSize=6;strokeWidth=1;" edge="1" parent="1" target="49">
                    <mxGeometry relative="1" as="geometry">
                        <mxPoint x="990" y="240" as="sourcePoint"/>
                    </mxGeometry>
                </mxCell>
                <mxCell id="49" value="" style="ellipse;whiteSpace=wrap;html=1;fontFamily=Helvetica;fontSize=12;fontColor=#000000;align=center;strokeColor=#000000;fillColor=#ffffff;points=[];aspect=fixed;resizable=0;" vertex="1" parent="1">
                    <mxGeometry x="985" y="170" width="10" height="10" as="geometry"/>
                </mxCell>
                <mxCell id="50" value="API" style="text;html=1;strokeColor=none;fillColor=none;align=center;verticalAlign=middle;whiteSpace=wrap;rounded=0;" vertex="1" parent="1">
                    <mxGeometry x="1000" y="130" width="40" height="20" as="geometry"/>
                </mxCell>
                <mxCell id="51" value="" style="endArrow=classic;startArrow=classic;html=1;exitX=0;exitY=0.5;exitDx=0;exitDy=0;exitPerimeter=0;entryX=1;entryY=0.5;entryDx=0;entryDy=0;entryPerimeter=0;" edge="1" parent="1" source="44" target="36">
                    <mxGeometry width="50" height="50" relative="1" as="geometry">
                        <mxPoint x="170" y="90" as="sourcePoint"/>
                        <mxPoint x="400" y="210" as="targetPoint"/>
                    </mxGeometry>
                </mxCell>
                <mxCell id="52" value="" style="endArrow=classic;startArrow=classic;html=1;exitX=1;exitY=0.5;exitDx=0;exitDy=0;exitPerimeter=0;entryX=0;entryY=0.5;entryDx=0;entryDy=0;entryPerimeter=0;" edge="1" parent="1" source="3" target="44">
                    <mxGeometry width="50" height="50" relative="1" as="geometry">
                        <mxPoint x="180" y="100" as="sourcePoint"/>
                        <mxPoint x="410" y="220" as="targetPoint"/>
                    </mxGeometry>
                </mxCell>
                <mxCell id="54" value="Actor" style="shape=umlActor;verticalLabelPosition=bottom;verticalAlign=top;html=1;" vertex="1" parent="1">
                    <mxGeometry x="460" y="760" width="30" height="60" as="geometry"/>
                </mxCell>
                <mxCell id="56" value="" style="endArrow=classic;startArrow=classic;html=1;exitX=0.5;exitY=0;exitDx=0;exitDy=0;exitPerimeter=0;" edge="1" parent="1" source="54">
                    <mxGeometry width="50" height="50" relative="1" as="geometry">
                        <mxPoint x="540" y="540" as="sourcePoint"/>
                        <mxPoint x="410" y="330" as="targetPoint"/>
                    </mxGeometry>
                </mxCell>
                <mxCell id="57" value="Agregar Opcion3&lt;br&gt;from_rev:qwe" style="shape=note;whiteSpace=wrap;html=1;backgroundOutline=1;darkOpacity=0.05;size=17;" vertex="1" parent="1">
                    <mxGeometry x="470" y="580" width="100" height="110" as="geometry"/>
                </mxCell>
                <mxCell id="58" value="&lt;span style=&quot;color: rgb(240 , 240 , 240) ; font-family: &amp;#34;helvetica&amp;#34; ; font-size: 12px ; font-style: normal ; font-weight: 400 ; letter-spacing: normal ; text-align: center ; text-indent: 0px ; text-transform: none ; word-spacing: 0px ; background-color: rgb(42 , 42 , 42) ; display: inline ; float: none&quot;&gt;Agregar OpcionRT&lt;/span&gt;&lt;br style=&quot;color: rgb(240 , 240 , 240) ; font-family: &amp;#34;helvetica&amp;#34; ; font-size: 12px ; font-style: normal ; font-weight: 400 ; letter-spacing: normal ; text-align: center ; text-indent: 0px ; text-transform: none ; word-spacing: 0px ; background-color: rgb(42 , 42 , 42)&quot;&gt;&lt;span style=&quot;color: rgb(240 , 240 , 240) ; font-family: &amp;#34;helvetica&amp;#34; ; font-size: 12px ; font-style: normal ; font-weight: 400 ; letter-spacing: normal ; text-align: center ; text-indent: 0px ; text-transform: none ; word-spacing: 0px ; background-color: rgb(42 , 42 , 42) ; display: inline ; float: none&quot;&gt;from_rev:qwe&lt;/span&gt;" style="shape=note;whiteSpace=wrap;html=1;backgroundOutline=1;darkOpacity=0.05;size=17;" vertex="1" parent="1">
                    <mxGeometry x="260" y="670" width="110" height="100" as="geometry"/>
                </mxCell>
                <mxCell id="59" value="{&lt;br&gt;&quot;_rev&quot;: qwe&lt;br&gt;[&lt;br&gt;&quot;opcion1&quot;,&lt;br&gt;&quot;opcion2&quot;&lt;br&gt;]&lt;br&gt;}" style="shape=note;whiteSpace=wrap;html=1;backgroundOutline=1;darkOpacity=0.05;size=17;" vertex="1" parent="1">
                    <mxGeometry x="430" y="310" width="130" height="100" as="geometry"/>
                </mxCell>
                <mxCell id="60" value="1" style="text;html=1;strokeColor=none;fillColor=none;align=center;verticalAlign=middle;whiteSpace=wrap;rounded=0;" vertex="1" parent="1">
                    <mxGeometry x="480" y="590" width="40" height="20" as="geometry"/>
                </mxCell>
                <mxCell id="61" value="2" style="text;html=1;strokeColor=none;fillColor=none;align=center;verticalAlign=middle;whiteSpace=wrap;rounded=0;" vertex="1" parent="1">
                    <mxGeometry x="270" y="680" width="40" height="20" as="geometry"/>
                </mxCell>
                <mxCell id="63" value="Agregar Opcion3&lt;br&gt;from_rev:qwe" style="shape=note;whiteSpace=wrap;html=1;backgroundOutline=1;darkOpacity=0.05;size=17;" vertex="1" parent="1">
                    <mxGeometry x="590" y="310" width="130" height="100" as="geometry"/>
                </mxCell>
                <mxCell id="64" value="1" style="text;html=1;strokeColor=none;fillColor=none;align=center;verticalAlign=middle;whiteSpace=wrap;rounded=0;" vertex="1" parent="1">
                    <mxGeometry x="590" y="320" width="40" height="20" as="geometry"/>
                </mxCell>
                <mxCell id="65" value="{&lt;br&gt;&quot;_rev&quot;: rtyy&lt;br&gt;[&lt;br&gt;&quot;opcion1&quot;,&lt;br&gt;&quot;opcion2&quot;,&lt;br&gt;&quot;opcion3&quot;&lt;br&gt;]&lt;br&gt;}" style="shape=note;whiteSpace=wrap;html=1;backgroundOutline=1;darkOpacity=0.05;size=17;" vertex="1" parent="1">
                    <mxGeometry x="750" y="310" width="120" height="100" as="geometry"/>
                </mxCell>
                <mxCell id="67" value="Este cambio va a ser rechazado porque _rev en BD es rtyy, no qwe" style="text;html=1;strokeColor=none;fillColor=none;align=center;verticalAlign=middle;whiteSpace=wrap;rounded=0;" vertex="1" parent="1">
                    <mxGeometry x="180" y="610" width="180" height="50" as="geometry"/>
                </mxCell>
                <mxCell id="68" value="+" style="text;html=1;strokeColor=none;fillColor=none;align=center;verticalAlign=middle;whiteSpace=wrap;rounded=0;" vertex="1" parent="1">
                    <mxGeometry x="550" y="350" width="40" height="20" as="geometry"/>
                </mxCell>
                <mxCell id="69" value="Propaga rtyy" style="endArrow=classic;html=1;" edge="1" parent="1">
                    <mxGeometry width="50" height="50" relative="1" as="geometry">
                        <mxPoint x="650" y="210" as="sourcePoint"/>
                        <mxPoint x="740" y="180" as="targetPoint"/>
                    </mxGeometry>
                </mxCell>
                <mxCell id="70" value="Propaga rtyy" style="endArrow=classic;html=1;" edge="1" parent="1">
                    <mxGeometry width="50" height="50" relative="1" as="geometry">
                        <mxPoint x="290" y="210" as="sourcePoint"/>
                        <mxPoint x="220" y="160" as="targetPoint"/>
                    </mxGeometry>
                </mxCell>
                <mxCell id="71" value="=" style="text;html=1;strokeColor=none;fillColor=none;align=center;verticalAlign=middle;whiteSpace=wrap;rounded=0;" vertex="1" parent="1">
                    <mxGeometry x="720" y="350" width="40" height="20" as="geometry"/>
                </mxCell>
                <mxCell id="73" value="Agregar OpcionKL&lt;br&gt;from_rev:qwe" style="shape=note;whiteSpace=wrap;html=1;backgroundOutline=1;darkOpacity=0.05;size=17;" vertex="1" parent="1">
                    <mxGeometry y="370" width="100" height="110" as="geometry"/>
                </mxCell>
                <mxCell id="74" value="1" style="text;html=1;strokeColor=none;fillColor=none;align=center;verticalAlign=middle;whiteSpace=wrap;rounded=0;" vertex="1" parent="1">
                    <mxGeometry x="10" y="380" width="40" height="20" as="geometry"/>
                </mxCell>
                <mxCell id="75" value="{&lt;br&gt;&quot;_rev&quot;: qwe&lt;br&gt;[&lt;br&gt;&quot;opcion1&quot;,&lt;br&gt;&quot;opcion2&quot;&lt;br&gt;]&lt;br&gt;}" style="shape=note;whiteSpace=wrap;html=1;backgroundOutline=1;darkOpacity=0.05;size=17;" vertex="1" parent="1">
                    <mxGeometry x="5" y="-80" width="130" height="100" as="geometry"/>
                </mxCell>
                <mxCell id="76" value="+" style="text;html=1;strokeColor=none;fillColor=none;align=center;verticalAlign=middle;whiteSpace=wrap;rounded=0;" vertex="1" parent="1">
                    <mxGeometry x="135" y="-40" width="40" height="20" as="geometry"/>
                </mxCell>
                <mxCell id="77" value="Agregar OpcionKL&lt;br&gt;from_rev:qwe" style="shape=note;whiteSpace=wrap;html=1;backgroundOutline=1;darkOpacity=0.05;size=17;" vertex="1" parent="1">
                    <mxGeometry x="170" y="-85" width="100" height="110" as="geometry"/>
                </mxCell>
                <mxCell id="79" value="{&lt;br&gt;&quot;_rev&quot;: pol&lt;br&gt;[&lt;br&gt;&quot;opcion1&quot;,&lt;br&gt;&quot;opcion2&quot;,&lt;br&gt;&quot;opcionKL&quot;&lt;br&gt;]&lt;br&gt;}" style="shape=note;whiteSpace=wrap;html=1;backgroundOutline=1;darkOpacity=0.05;size=17;" vertex="1" parent="1">
                    <mxGeometry x="305" y="-80" width="120" height="100" as="geometry"/>
                </mxCell>
                <mxCell id="80" value="=" style="text;html=1;strokeColor=none;fillColor=none;align=center;verticalAlign=middle;whiteSpace=wrap;rounded=0;" vertex="1" parent="1">
                    <mxGeometry x="270" y="-40" width="40" height="20" as="geometry"/>
                </mxCell>
                <mxCell id="81" value="Propaga pol" style="endArrow=classic;html=1;" edge="1" parent="1">
                    <mxGeometry width="50" height="50" relative="1" as="geometry">
                        <mxPoint x="460" y="50" as="sourcePoint"/>
                        <mxPoint x="570" y="50" as="targetPoint"/>
                    </mxGeometry>
                </mxCell>
                <mxCell id="82" value="CONFLICT" style="shape=callout;whiteSpace=wrap;html=1;perimeter=calloutPerimeter;" vertex="1" parent="1">
                    <mxGeometry x="880" y="-40" width="120" height="80" as="geometry"/>
                </mxCell>
                <mxCell id="83" value="CONFLICT" style="shape=callout;whiteSpace=wrap;html=1;perimeter=calloutPerimeter;position2=0.75;" vertex="1" parent="1">
                    <mxGeometry x="-50" y="70" width="120" height="70" as="geometry"/>
                </mxCell>
                <mxCell id="84" value="&lt;b&gt;No estan reflejadas las UI&lt;/b&gt;" style="text;html=1;strokeColor=none;fillColor=none;align=center;verticalAlign=middle;whiteSpace=wrap;rounded=0;" vertex="1" parent="1">
                    <mxGeometry x="220" y="430" width="100" height="60" as="geometry"/>
                </mxCell>
            </root>
        </mxGraphModel>
    </diagram>
</mxfile>